<svg xmlns="http://www.w3.org/2000/svg" viewBox="0 0 64 64" role="img" aria-labelledby="title">
  <title id="title">Jake Sass orbit monogram</title>
  <defs>
    <linearGradient id="space" x1="10" y1="7" x2="54" y2="58" gradientUnits="userSpaceOnUse">
      <stop stop-color="#15213B"/>
      <stop offset="1" stop-color="#02070B"/>
    </linearGradient>
    <linearGradient id="orbit" x1="8" y1="47" x2="58" y2="18" gradientUnits="userSpaceOnUse">
      <stop stop-color="#55DFFF"/>
      <stop offset="0.52" stop-color="#A78BFA"/>
      <stop offset="1" stop-color="#F59E0B"/>
    </linearGradient>
  </defs>
  <circle cx="32" cy="32" r="28.5" fill="url(#space)" stroke="#F4F1E8" stroke-width="2"/>
  <circle cx="32" cy="32" r="23" fill="none" stroke="#A78BFA" stroke-opacity=".24"/>
  <path d="M12.5 42.5C20.5 49.4 40.8 45.7 52.8 34.2C60 27.3 60.8 21 56.6 18.5" fill="none" stroke="#02070B" stroke-width="5" stroke-linecap="round"/>
  <path d="M12.5 42.5C20.5 49.4 40.8 45.7 52.8 34.2C60 27.3 60.8 21 56.6 18.5" fill="none" stroke="url(#orbit)" stroke-width="2.5" stroke-linecap="round"/>
  <circle cx="12.5" cy="42.5" r="2.6" fill="#55DFFF" stroke="#02070B" stroke-width="1.4"/>
  <path d="M26.4 18.5v20.1c0 5-2.8 7.3-7.3 7.3-2.2 0-4.1-.7-5.6-2.2l3.4-4.1c.7.7 1.3 1 2 1 1.2 0 1.8-.8 1.8-2.4V18.5h5.7Zm20.4 2.7-3.5 4.1c-2-1.5-4-2.2-6-2.2-2.1 0-3.3.7-3.3 1.9 0 1.4 1.2 1.8 5.5 3 5.4 1.6 8.1 3.8 8.1 8.6 0 6-4.8 9.4-11.6 9.4-5.1 0-9-1.8-11.7-4.4l3.8-4.2c2.2 1.9 4.6 3 7.5 3 2.5 0 4.1-.9 4.1-2.6 0-1.5-1.2-2.2-5.2-3.3-6.4-1.9-8.5-4.5-8.5-8.3 0-4.9 4.4-8.6 10.8-8.6 4.4 0 7.6 1.3 10 3.6Z" fill="#F4F1E8"/>
  <path d="m48.7 12.3.9 2.6 2.6.9-2.6.9-.9 2.6-.9-2.6-2.6-.9 2.6-.9.9-2.6Z" fill="#F59E0B"/>
</svg>
